<?xml version="1.0" encoding="UTF-8"?>
<svg xmlns="http://www.w3.org/2000/svg" xmlns:xlink="http://www.w3.org/1999/xlink" width="512px" height="512px" viewBox="0 0 512 512" version="1.1">
<defs>
<clipPath id="clip1">
  <path d="M 51.199219 51.199219 L 248.121094 51.199219 L 248.121094 460.800781 L 51.199219 460.800781 Z M 51.199219 51.199219 "/>
</clipPath>
<clipPath id="clip2">
  <path d="M 63.023438 187.804688 C 55.882812 208.804688 51.199219 232.675781 51.199219 256.109375 C 51.199219 279.539062 55.214844 302.085938 62.355469 322.863281 C 62.582031 323.304688 62.582031 323.75 62.800781 324.191406 C 91.367188 402.21875 166.796875 459.691406 248.121094 460.796875 L 248.121094 51.199219 C 166.351562 52.304688 90.921875 108.890625 63.023438 187.804688 Z M 63.023438 187.804688 "/>
</clipPath>
<clipPath id="clip3">
  <path d="M 63.023438 187.804688 C 55.882812 208.804688 51.199219 232.675781 51.199219 256.109375 C 51.199219 279.539062 55.214844 302.085938 62.355469 322.863281 C 62.582031 323.304688 62.582031 323.75 62.800781 324.191406 C 91.367188 402.21875 166.796875 459.691406 248.121094 460.796875 L 248.121094 51.199219 C 166.351562 52.304688 90.921875 108.890625 63.023438 187.804688 Z M 63.023438 187.804688 "/>
</clipPath>
<clipPath id="clip4">
  <path d="M 255.996094 157.011719 L 466.507812 157.011719 L 466.507812 460.796875 L 255.996094 460.796875 Z M 255.996094 157.011719 "/>
</clipPath>
<clipPath id="clip5">
  <path d="M 457.742188 359.53125 C 463.035156 343.964844 466.507812 326.265625 466.507812 308.894531 C 466.507812 291.527344 463.53125 274.8125 458.238281 259.410156 C 458.070312 259.082031 458.070312 258.753906 457.90625 258.425781 C 436.730469 200.582031 380.816406 157.976562 319.097656 157.15625 L 255.996094 157.15625 L 255.996094 460.796875 L 319.050781 460.796875 C 381.144531 459.980469 437.0625 418.03125 457.742188 359.53125 Z M 457.742188 359.53125 "/>
</clipPath>
<clipPath id="clip6">
  <path d="M 457.742188 359.53125 C 463.035156 343.964844 466.507812 326.265625 466.507812 308.894531 C 466.507812 291.527344 463.53125 274.8125 458.238281 259.410156 C 458.070312 259.082031 458.070312 258.753906 457.90625 258.425781 C 436.730469 200.582031 380.816406 157.976562 319.097656 157.15625 L 255.996094 157.15625 L 255.996094 460.796875 L 319.050781 460.796875 C 381.144531 459.980469 437.0625 418.03125 457.742188 359.53125 Z M 457.742188 359.53125 "/>
</clipPath>
<clipPath id="clip7">
  <path d="M 256 51.199219 L 460.800781 51.199219 L 460.800781 149.660156 L 256 149.660156 Z M 256 51.199219 "/>
</clipPath>
<clipPath id="clip8">
  <path d="M 392.496094 57.109375 C 381.996094 53.539062 370.058594 51.199219 358.34375 51.199219 C 346.628906 51.199219 335.355469 53.207031 324.96875 56.777344 C 324.746094 56.890625 324.523438 56.890625 324.304688 57 C 285.289062 71.28125 256.554688 108.996094 256 149.660156 L 460.800781 149.660156 C 460.246094 108.773438 431.953125 71.058594 392.496094 57.109375 Z M 392.496094 57.109375 "/>
</clipPath>
<clipPath id="clip9">
  <path d="M 392.496094 57.109375 C 381.996094 53.539062 370.058594 51.199219 358.34375 51.199219 C 346.628906 51.199219 335.355469 53.207031 324.96875 56.777344 C 324.746094 56.890625 324.523438 56.890625 324.304688 57 C 285.289062 71.28125 256.554688 108.996094 256 149.660156 L 460.800781 149.660156 C 460.246094 108.773438 431.953125 71.058594 392.496094 57.109375 Z M 392.496094 57.109375 "/>
</clipPath>
</defs>
<g id="surface1">
<g clip-path="url(#clip1)" clip-rule="nonzero">
<g clip-path="url(#clip2)" clip-rule="nonzero">
<g clip-path="url(#clip3)" clip-rule="nonzero">
<path style=" stroke:none;fill-rule:nonzero;fill:rgb(100%,100%,100%);fill-opacity:1;" d="M 248.121094 51.199219 L 248.121094 460.429688 L 51.199219 460.429688 L 51.199219 51.199219 Z M 248.121094 51.199219 "/>
</g>
</g>
</g>
<g clip-path="url(#clip4)" clip-rule="nonzero">
<g clip-path="url(#clip5)" clip-rule="nonzero">
<g clip-path="url(#clip6)" clip-rule="nonzero">
<path style=" stroke:none;fill-rule:nonzero;fill:rgb(100%,100%,100%);fill-opacity:1;" d="M 255.996094 460.796875 L 255.996094 157.367188 L 466.507812 157.367188 L 466.507812 460.796875 Z M 255.996094 460.796875 "/>
</g>
</g>
</g>
<g clip-path="url(#clip7)" clip-rule="nonzero">
<g clip-path="url(#clip8)" clip-rule="nonzero">
<g clip-path="url(#clip9)" clip-rule="nonzero">
<path style=" stroke:none;fill-rule:nonzero;fill:rgb(100%,100%,100%);fill-opacity:1;" d="M 460.800781 149.660156 L 256.183594 149.660156 L 256.183594 51.199219 L 460.800781 51.199219 Z M 460.800781 149.660156 "/>
</g>
</g>
</g>
</g>
</svg>
